M48
; DRILL file {KiCad 7.0.10} date Tue Feb 13 21:18:49 2024
; FORMAT={-:-/ absolute / inch / decimal}
; #@! TF.CreationDate,2024-02-13T21:18:49-05:00
; #@! TF.GenerationSoftware,Kicad,Pcbnew,7.0.10
; #@! TF.FileFunction,MixedPlating,1,4
FMAT,2
INCH
; #@! TA.AperFunction,Plated,PTH,ViaDrill
T1C0.0157
; #@! TA.AperFunction,Plated,PTH,ComponentDrill
T2C0.0300
; #@! TA.AperFunction,Plated,PTH,ComponentDrill
T3C0.0354
; #@! TA.AperFunction,Plated,PTH,ComponentDrill
T4C0.0394
; #@! TA.AperFunction,Plated,PTH,ComponentDrill
T5C0.0402
; #@! TA.AperFunction,Plated,PTH,ComponentDrill
T6C0.0551
; #@! TA.AperFunction,Plated,PTH,ComponentDrill
T7C0.0630
; #@! TA.AperFunction,Plated,PTH,ComponentDrill
T8C0.0860
; #@! TA.AperFunction,NonPlated,NPTH,ComponentDrill
T9C0.1083
; #@! TA.AperFunction,NonPlated,NPTH,ComponentDrill
T10C0.1280
%
G90
G05
T1
X7.9134Y-1.998
X7.9528Y-1.8799
X7.9626Y-1.998
X7.9724Y-3.0315
X7.9724Y-3.0906
X7.9724Y-3.1496
X7.9724Y-3.2087
X7.9724Y-3.2677
X7.9724Y-3.3268
X7.9724Y-3.3858
X7.9724Y-3.4449
X8.0512Y-1.8209
X8.0512Y-2.0472
X8.0906Y-1.8602
X8.0906Y-2.0079
X8.1496Y-6.25
X8.1791Y-1.8602
X8.1791Y-2.0079
X8.1791Y-6.2008
X8.2185Y-6.25
X8.2579Y-1.8209
X8.2579Y-2.0079
X8.2677Y-6.2008
X8.2874Y-6.25
X8.3661Y-1.8799
X8.3661Y-1.998
X8.4449Y-1.939
X8.6024Y-2.3431
X8.6319Y-6.2402
X8.6516Y-2.2642
X8.6516Y-5.876
X8.6713Y-2.9232
X8.6713Y-5.9154
X8.6811Y-3.0217
X8.6811Y-6.2402
X8.7008Y-1.8996
X8.7008Y-2.2642
X8.7008Y-4.439
X8.7008Y-5.0591
X8.7008Y-5.7776
X8.7008Y-5.876
X8.7272Y-2.9045
X8.7303Y-6.2402
X8.7343Y-2.6535
X8.75Y-2.2642
X8.75Y-3.1399
X8.75Y-3.1792
X8.7795Y-1.8504
X8.7795Y-2.6181
X8.7992Y-2.2642
X8.8287Y-2.4512
X8.8484Y-2.5197
X8.8583Y-3.4154
X8.8878Y-2.0483
X8.8976Y-2.3429
X8.927Y-2.4803
X8.937Y-3.1102
X8.937Y-3.2677
X8.9469Y-2.6476
X9.0258Y-3.3767
X9.0753Y-3.3273
X9.1043Y-2.5
X9.1043Y-3.1299
X9.124Y-3.4055
X9.1535Y-3.3071
X9.1634Y-2.5
X9.1732Y-3.6516
X9.1929Y-5.0492
X9.2028Y-4.9902
X9.2126Y-3.3957
X9.2815Y-3.6122
X9.2945Y-3.3137
X9.3012Y-3.1299
X9.3504Y-3.3169
X9.3898Y-2.6772
X9.3898Y-2.7657
X9.3898Y-3.1102
X9.3898Y-3.5138
X9.3898Y-4.9409
X9.4289Y-4.5965
X9.4291Y-3.3957
X9.4685Y-3.4744
X9.4783Y-4.5965
X9.5276Y-4.5965
X9.5374Y-2.5492
X9.5374Y-2.7362
X9.5374Y-3.1791
X9.5719Y-2.7608
X9.5768Y-2.6083
X9.5768Y-3.1004
X9.5789Y-4.5965
X9.5789Y-4.9705
X9.5789Y-5.0886
X9.6161Y-2.8937
X9.6358Y-2.6083
X9.6358Y-2.6969
X9.6555Y-3.5925
X9.6654Y-1.8799
X9.6949Y-2.9232
X9.8524Y-4.0551
X9.8524Y-4.1634
X9.9213Y-4.0551
X9.9213Y-4.1634
X9.9289Y-4.5866
X9.9289Y-4.7244
X9.9289Y-4.9628
X9.9289Y-5.1006
X10.0197Y-2.8089
X10.0197Y-2.8893
X10.0197Y-2.9696
X10.0197Y-3.05
X10.0492Y-2.3262
X10.0492Y-2.3852
X10.0492Y-2.4443
X10.0492Y-2.5033
X10.0492Y-2.6215
X10.0497Y-2.5619
X10.0689Y-5.3445
X10.0689Y-5.4528
X10.1476Y-4.5295
X10.1575Y-4.8031
X10.2165Y-4.813
X10.2559Y-4.1732
X10.2657Y-4.8819
X10.2933Y-5.0787
X10.3051Y-4.5768
X10.3051Y-4.6555
X10.3268Y-2.1949
X10.3268Y-2.2539
X10.3346Y-1.8996
X10.3346Y-1.9587
X10.3346Y-2.0177
X10.3366Y-1.8406
X10.3366Y-2.0768
X10.3366Y-2.1358
T2
X8.5622Y-3.985
X8.5622Y-4.085
X8.5622Y-4.185
X8.5622Y-4.285
X8.5622Y-4.385
X8.5622Y-4.7035
X8.5622Y-4.8035
X8.5622Y-4.9035
X8.5622Y-5.0035
X8.5622Y-5.1035
X8.5622Y-5.422
X8.5622Y-5.522
X8.5622Y-5.622
X8.5622Y-5.722
X8.5622Y-5.822
T3
X9.5927Y-5.6213
X9.6427Y-5.7213
X9.6927Y-5.6213
X9.7427Y-5.7213
X9.7927Y-5.6213
X9.8427Y-5.7213
X9.8927Y-5.6213
X9.9427Y-5.7213
X9.9927Y-5.6213
X10.0427Y-5.7213
T4
X8.1535Y-1.6429
X8.1535Y-1.7429
X8.2535Y-1.6429
X8.2535Y-1.7429
X8.272Y-2.2598
X8.272Y-2.3598
X8.272Y-2.4598
X8.272Y-2.5598
X8.272Y-2.6598
X8.272Y-2.7598
X8.3535Y-1.6429
X8.3535Y-1.7429
X8.372Y-2.2598
X8.372Y-2.3598
X8.372Y-2.4598
X8.372Y-2.5598
X8.372Y-2.6598
X8.372Y-2.7598
X8.4535Y-1.6429
X8.4535Y-1.7429
X8.5535Y-1.6429
X8.5535Y-1.7429
X8.6535Y-1.6429
X8.6535Y-1.7429
X8.7535Y-1.6429
X8.7535Y-1.7429
X8.8535Y-1.6429
X8.8535Y-1.7429
X8.9535Y-1.6429
X8.9535Y-1.7429
X9.0535Y-1.6429
X9.0535Y-1.7429
X9.1535Y-1.6429
X9.1535Y-1.7429
X9.2535Y-1.6429
X9.2535Y-1.7429
X9.3535Y-1.6429
X9.3535Y-1.7429
X9.4535Y-1.6429
X9.4535Y-1.7429
X9.5535Y-1.6429
X9.5535Y-1.7429
X9.6535Y-1.6429
X9.6535Y-1.7429
X9.7535Y-1.6429
X9.7535Y-1.7429
X9.8535Y-1.6429
X9.8535Y-1.7429
X9.9478Y-3.3268
X9.9478Y-3.4268
X9.9535Y-1.6429
X9.9535Y-1.7429
X10.0478Y-3.3268
X10.0478Y-3.4268
X10.0535Y-1.6429
X10.0535Y-1.7429
X10.1461Y-3.8091
X10.1461Y-3.9764
X10.1478Y-3.3268
X10.1478Y-3.4268
X10.1535Y-1.6429
X10.1535Y-1.7429
X10.2455Y-2.822
X10.2455Y-2.922
X10.2455Y-3.022
X10.2455Y-3.122
X10.2461Y-2.3557
X10.2461Y-2.4557
X10.2461Y-2.5557
X10.2461Y-2.6557
X10.2461Y-3.8091
X10.2461Y-3.9764
X10.2478Y-3.3268
X10.2478Y-3.4268
X10.3455Y-2.822
X10.3455Y-2.922
X10.3455Y-3.022
X10.3455Y-3.122
X10.3461Y-2.3557
X10.3461Y-2.4557
X10.3461Y-2.5557
X10.3461Y-2.6557
X10.3461Y-3.8091
X10.3461Y-3.9764
X10.3478Y-3.3268
X10.3478Y-3.4268
T5
X9.5567Y-6.1319
X9.6567Y-6.1319
X9.9787Y-6.1319
X10.0787Y-6.1319
T6
X9.0535Y-5.3527
X9.0535Y-6.0121
X9.2535Y-5.3527
X9.2535Y-6.0121
T7
X9.5128Y-5.8512
X10.1226Y-5.8512
T8
X8.002Y-4.3445
X8.002Y-5.063
X8.002Y-5.7815
X8.5217Y-3.825
X8.5217Y-4.5435
X8.5217Y-5.262
T9
X8.0118Y-1.6929
X8.0118Y-3.622
X8.0118Y-6.1417
X10.2953Y-1.6929
X10.2953Y-3.622
X10.2953Y-6.1417
T10
X9.5927Y-5.9713
X10.0427Y-5.9713
M30
